<?xml version="1.0" standalone="no"?>
<!DOCTYPE svg PUBLIC "-//W3C//DTD SVG 20010904//EN"
 "http://www.w3.org/TR/2001/REC-SVG-20010904/DTD/svg10.dtd">
<svg version="1.0" xmlns="http://www.w3.org/2000/svg"
 width="282.000000pt" height="386.000000pt" viewBox="0 0 282.000000 386.000000"
 preserveAspectRatio="xMidYMid meet">

<g transform="translate(0.000000,386.000000) scale(0.100000,-0.100000)"
fill="#000000" stroke="none">
<path d="M999 3717 c-46 -45 -109 -117 -109 -125 0 -4 -11 -19 -25 -34 -14
-15 -25 -32 -25 -37 0 -6 -10 -20 -22 -31 -13 -12 -23 -26 -23 -33 0 -16 -44
-97 -62 -115 -8 -8 -12 -21 -9 -28 3 -8 1 -14 -4 -14 -5 0 -6 -7 -3 -17 4 -9
2 -14 -3 -11 -5 4 -10 -8 -11 -25 -1 -17 -7 -33 -13 -37 -6 -4 -12 -16 -15
-28 -2 -12 -6 -26 -10 -31 -3 -5 -8 -24 -10 -43 -3 -18 -8 -46 -11 -63 -3 -16
-7 -45 -8 -62 0 -18 -4 -33 -7 -33 -3 0 -6 -61 -7 -135 0 -113 2 -135 14 -135
11 0 13 6 9 21 -5 15 -4 19 4 14 8 -5 10 1 5 21 -5 19 -4 25 5 20 6 -4 11 -1
12 6 1 29 9 55 28 92 11 21 18 43 15 47 -3 5 0 9 6 9 6 0 9 4 5 10 -6 9 13 50
29 61 5 4 5 12 2 18 -4 6 -2 11 3 11 6 0 11 6 11 14 0 16 67 147 104 200 14
21 26 43 26 49 0 6 3 7 6 4 4 -4 14 7 23 23 9 16 27 43 41 62 32 41 190 200
190 190 0 -4 5 1 11 11 6 9 14 15 20 12 5 -4 9 -2 9 4 0 5 20 19 44 30 59 29
93 59 75 66 -18 6 -275 75 -282 75 -2 0 -19 -15 -38 -33z"/>
<path d="M1570 3633 c-64 -5 -82 -17 -78 -52 3 -26 4 -26 78 -24 115 4 274
-15 364 -44 261 -82 476 -264 596 -508 76 -155 95 -238 95 -430 0 -136 -3
-172 -23 -244 -60 -220 -186 -407 -364 -541 -185 -140 -392 -203 -648 -198
-113 2 -129 0 -173 -21 -140 -69 -189 -248 -102 -375 14 -20 25 -39 25 -41 0
-3 -101 -5 -223 -5 -266 0 -257 4 -257 -108 0 -122 -47 -112 548 -112 596 0
552 -9 552 108 0 110 10 106 -252 112 -250 6 -261 9 -322 83 -27 34 -31 46
-31 101 0 72 24 116 83 157 33 23 44 24 191 25 214 2 332 29 501 114 413 208
641 660 566 1120 -87 535 -580 921 -1126 883z"/>
<path d="M1454 3316 c-297 -68 -537 -311 -598 -608 -72 -350 98 -704 414 -863
128 -64 198 -80 360 -80 166 0 237 16 370 86 187 97 340 291 396 499 22 81 26
342 6 362 -9 9 -12 5 -12 -23 -1 -76 -65 -168 -145 -205 -135 -64 -295 12
-374 176 -22 47 -26 68 -26 150 0 84 3 101 27 146 30 57 74 99 128 122 51 22
141 18 192 -7 23 -11 43 -19 45 -17 6 6 -108 106 -166 145 -75 51 -106 66
-198 97 -66 22 -99 27 -218 30 -96 2 -159 -1 -201 -10z"/>
<path d="M403 3207 c-178 -119 -169 -103 -160 -296 19 -379 159 -679 420 -896
31 -26 57 -45 57 -43 0 3 -20 40 -45 84 -120 209 -201 492 -212 735 -8 189 21
368 78 482 11 20 18 37 17 36 -2 0 -72 -46 -155 -102z"/>
<path d="M625 2661 c-3 -5 -2 -12 3 -15 5 -3 9 1 9 9 0 17 -3 19 -12 6z"/>
<path d="M178 2433 c-9 -27 -32 -87 -51 -135 l-35 -88 49 -69 c143 -204 385
-406 624 -521 94 -45 309 -120 344 -120 9 0 -21 20 -65 44 -231 124 -517 368
-662 564 -71 96 -147 243 -165 320 -6 28 -14 52 -17 52 -4 0 -13 -21 -22 -47z"/>
<path d="M485 742 l-40 -3 -118 -307 c-65 -169 -118 -310 -117 -314 0 -5 18
-8 39 -8 l39 0 34 93 34 92 138 0 139 0 36 -93 36 -93 90 3 89 3 18 50 c10 28
25 69 34 93 l16 42 137 0 137 0 34 -91 c19 -50 39 -93 46 -96 6 -2 28 -3 47
-1 l35 3 -80 195 c-44 107 -101 248 -126 313 l-47 118 -49 -3 -49 -3 -116
-302 c-64 -166 -119 -304 -122 -307 -3 -4 -61 130 -129 296 -68 167 -128 308
-134 313 -6 6 -29 9 -51 7z m58 -205 c27 -72 51 -140 54 -149 5 -16 -5 -18
-105 -18 l-110 0 43 113 c24 61 46 129 50 150 4 20 10 37 14 37 3 0 28 -60 54
-133z m581 31 c19 -51 43 -117 55 -145 l21 -53 -110 0 c-61 0 -110 2 -110 5 0
3 18 51 39 107 21 57 44 123 51 147 6 23 14 41 16 38 3 -3 20 -47 38 -99z"/>
<path d="M2040 743 c0 -3 201 -520 223 -573 22 -53 24 -55 64 -58 l41 -3 52
133 c29 73 83 212 121 308 38 96 69 180 69 185 0 6 -17 9 -39 7 l-40 -4 -76
-206 c-42 -114 -86 -237 -98 -274 -12 -37 -24 -68 -27 -68 -3 0 -47 119 -99
264 -51 145 -97 269 -101 276 -6 10 -90 22 -90 13z"/>
<path d="M1460 424 l0 -316 163 4 c179 5 217 15 274 70 17 17 42 54 55 82 20
44 23 67 23 166 0 100 -3 122 -24 168 -27 60 -88 117 -140 132 -20 5 -107 10
-193 10 l-158 0 0 -316z m357 220 c15 -11 39 -41 53 -65 22 -39 25 -55 25
-149 0 -94 -3 -110 -25 -149 -45 -80 -94 -100 -247 -101 l-83 0 0 246 0 246
124 -4 c108 -3 128 -6 153 -24z"/>
</g>
</svg>
